<svg width="745" height="422" viewBox="0 0 745 422" fill="none" xmlns="http://www.w3.org/2000/svg">
<path d="M299.78 493.898C158.489 395.148 31.7981 175.007 165.28 51.0968C289.04 -63.7881 353.444 63.4748 496.716 -9.73935C639.989 -82.9535 569.294 -294.773 732.796 -346.488C827.697 -376.505 943.486 -328.168 1004.73 -217.665C1065.97 -107.161 1072.66 65.5079 949.375 284.154C832.915 490.69 691.036 557.468 568.013 565.441C444.989 573.415 340.821 522.582 299.78 493.898Z" stroke="white" stroke-opacity="0.4" stroke-width="2.10293" stroke-miterlimit="10"/>
<path d="M932.468 284.035C825.941 473.621 695.905 535.778 582.676 543.724C470.184 551.443 374.581 505.597 335.878 479.17C204.448 388.816 86.3122 185.883 205.844 68.9716C316.213 -38.979 375.915 72.5134 507.274 4.20409C511.007 2.24721 514.588 0.19342 518.028 -1.95209C611.223 -60.0196 599.199 -185.807 661.817 -258.512C678.816 -278.248 701.227 -294.174 732.594 -303.695C822.818 -331.081 929.713 -285.482 985.668 -182.97C1041.78 -79.8913 1046.35 80.9386 932.468 284.035Z" stroke="white" stroke-opacity="0.4" stroke-width="2.10293" stroke-miterlimit="10"/>
<path d="M915.561 283.916C818.968 456.551 700.774 514.087 597.339 522.007C495.379 529.472 408.258 488.728 371.977 464.441C250.123 382.871 140.82 196.795 246.409 86.8456C343.387 -14.1376 398.617 81.9487 517.832 18.146C521.268 16.3071 524.557 14.3608 527.73 12.3459C613.456 -41.9776 606.622 -155.531 666.171 -220.493C682.432 -238.231 703.466 -252.539 732.394 -260.902C817.956 -285.64 915.942 -242.797 966.611 -148.276C1017.59 -52.6215 1020.03 96.3683 915.561 283.916Z" stroke="white" stroke-opacity="0.4" stroke-width="2.10293" stroke-miterlimit="10"/>
<path d="M898.654 283.799C811.994 439.483 705.665 492.649 612.001 500.29C520.596 507.747 441.985 471.796 408.076 449.713C295.972 376.706 195.325 207.753 286.973 104.721C370.562 10.7493 421.194 91.1547 528.39 32.0891C531.525 30.3615 534.527 28.5289 537.43 26.6451C615.687 -23.9351 614.07 -125.251 670.525 -182.474C686.053 -198.213 705.711 -210.888 732.193 -218.109C813.113 -240.173 902.169 -200.111 947.552 -113.582C993.401 -25.3508 993.718 111.8 898.654 283.799Z" stroke="white" stroke-opacity="0.4" stroke-width="2.10293" stroke-miterlimit="10"/>
<path d="M881.746 283.681C805.321 422.566 710.542 471.032 626.663 478.573C545.798 485.844 475.717 454.859 444.173 434.985C341.845 370.514 249.829 218.774 327.536 122.596C397.747 35.6957 443.758 100.33 538.946 46.0321C541.78 44.415 544.494 42.6973 547.13 40.9441C617.916 -5.89238 621.55 -94.9639 674.876 -144.455C689.681 -158.194 707.963 -169.219 731.989 -175.315C808.292 -194.676 888.605 -157.524 928.491 -78.8865C969.429 1.81883 967.742 127.402 881.746 283.681Z" stroke="white" stroke-opacity="0.4" stroke-width="2.10293" stroke-miterlimit="10"/>
<path d="M864.838 283.563C798.396 405.52 715.421 449.406 641.325 456.857C571.001 463.928 509.458 437.913 480.272 420.257C387.751 364.287 304.352 229.881 368.101 140.471C424.96 60.7217 466.31 109.467 549.504 59.9744C552.038 58.4669 554.463 56.8644 556.832 55.2425C620.149 12.1493 629.074 -64.6624 679.231 -106.436C693.324 -118.173 710.228 -127.528 731.789 -132.522C803.499 -149.132 874.868 -114.851 909.434 -44.1925C945.277 29.0762 941.492 142.863 864.838 283.563Z" stroke="white" stroke-opacity="0.4" stroke-width="2.10293" stroke-miterlimit="10"/>
<path d="M847.931 283.445C791.451 388.464 720.301 427.764 655.988 435.139C596.206 441.995 543.211 420.955 516.37 405.528C433.698 358.014 358.925 241.106 408.666 158.346C452.233 85.8563 488.84 118.552 560.063 73.9179C562.294 72.5189 564.433 71.0333 566.534 69.542C622.38 30.1926 636.652 -34.3307 683.585 -68.4169C696.98 -78.1453 712.503 -85.8092 731.588 -89.7286C798.737 -103.52 861.116 -72.1685 890.375 -9.49752C921.113 56.3407 915.226 158.315 847.931 283.445Z" stroke="white" stroke-opacity="0.4" stroke-width="2.10293" stroke-miterlimit="10"/>
<path d="M831.024 283.327C784.48 371.393 725.183 406.099 670.65 413.423C621.411 420.036 576.978 403.978 552.468 390.801C479.696 351.673 409.383 250.527 449.229 176.22C483.239 112.798 511.331 127.566 570.62 87.8602C572.55 86.5677 574.401 85.2011 576.236 83.84C624.613 48.2338 644.294 -3.9494 687.94 -30.3986C700.654 -38.1042 714.79 -44.0552 731.388 -46.9358C794.01 -57.8056 847.347 -29.4767 871.317 25.1968C896.93 83.6162 888.935 173.754 831.024 283.327Z" stroke="white" stroke-opacity="0.4" stroke-width="2.10293" stroke-miterlimit="10"/>
<path d="M814.116 283.21C777.466 354.301 730.063 384.391 685.312 391.706C646.612 398.033 610.766 386.971 588.567 376.073C525.754 345.236 468.574 264.029 489.794 194.096C507.253 136.553 533.761 136.483 581.178 101.803C582.803 100.615 584.37 99.3689 585.936 98.1392C626.844 66.277 652.004 26.5243 692.293 7.62088C704.347 1.96447 717.084 -2.25387 731.186 -4.14186C789.316 -11.9243 833.546 13.2292 852.259 59.8919C872.717 110.906 862.598 189.169 814.116 283.21Z" stroke="white" stroke-opacity="0.4" stroke-width="2.10293" stroke-miterlimit="10"/>
<path d="M797.209 283.091C770.384 337.176 734.929 362.594 699.975 369.989C671.801 375.95 644.58 369.908 624.665 361.345C571.884 338.649 524.056 275.654 530.358 211.97C535.3 162.037 556.076 145.261 591.736 115.746C593.053 114.656 594.339 113.537 595.638 112.438C629.075 84.3192 659.762 57.1482 696.646 45.6395C708.056 42.0794 719.383 39.6052 730.985 38.6506C784.646 34.2363 819.696 55.9509 833.2 94.5859C848.449 138.214 836.169 204.54 797.209 283.091Z" stroke="white" stroke-opacity="0.4" stroke-width="2.10293" stroke-miterlimit="10"/>
<path d="M570.922 229.845C563.612 185.493 579.372 151.112 605.339 126.737C631.307 102.362 667.481 87.9917 701 83.659C769.776 74.7692 804.208 93.0193 814.142 129.281C824.077 165.542 809.515 219.816 780.303 282.973C751.091 346.131 703.454 361.408 660.765 346.616C618.076 331.826 580.336 286.965 570.922 229.845Z" stroke="white" stroke-opacity="0.4" stroke-width="2.10293" stroke-miterlimit="10"/>
</svg>
