<svg width="29" height="29" viewBox="0 0 29 29" fill="none" xmlns="http://www.w3.org/2000/svg">
<path d="M20.8838 20.6653L27.0174 26.7988L20.8838 20.6653ZM2.48315 12.7793C2.48315 14.1601 2.75512 15.5274 3.28353 16.8031C3.81195 18.0788 4.58645 19.2379 5.56283 20.2143C6.5392 21.1907 7.69833 21.9652 8.97403 22.4936C10.2497 23.022 11.617 23.294 12.9978 23.294C14.3786 23.294 15.7459 23.022 17.0216 22.4936C18.2973 21.9652 19.4564 21.1907 20.4328 20.2143C21.4092 19.2379 22.1837 18.0788 22.7121 16.8031C23.2405 15.5274 23.5125 14.1601 23.5125 12.7793C23.5125 9.99064 22.4047 7.3162 20.4328 5.34432C18.4609 3.37244 15.7865 2.26465 12.9978 2.26465C10.2092 2.26465 7.53471 3.37244 5.56283 5.34432C3.59095 7.3162 2.48315 9.99064 2.48315 12.7793V12.7793Z" stroke="#F2994A" stroke-width="3.1544" stroke-linecap="round" stroke-linejoin="round"/>
</svg>
